<svg xmlns="http://www.w3.org/2000/svg"  version="1.1" id="Layer_1" x="0px" y="0px" viewBox="0 0 512 512" style="enable-background:new 0 0 512 512;" xml:space="preserve" width="512px" height="512px">
<g>
	<g>
		<path d="M345.027,110.175h-93.932c-4.806,0-8.7,3.895-8.7,8.7s3.894,8.7,8.7,8.7h85.233v83.475    c0,44.293-36.034,80.327-80.327,80.327s-80.327-36.034-80.327-80.327v-83.475h33.43c4.806,0,8.7-3.895,8.7-8.7s-3.894-8.7-8.7-8.7    h-42.13c-4.806,0-8.7,3.895-8.7,8.7v92.175c0,53.887,43.839,97.727,97.727,97.727c53.887,0,97.727-43.839,97.727-97.727v-92.175    C353.727,114.07,349.833,110.175,345.027,110.175z" fill="#D80027"/>
	</g>
</g>
<g>
	<g>
		<path d="M324.549,175.722c-3.639-17.855-17.355-29.393-34.945-29.393c-10.545,0-22.062,4.138-33.604,12.024    c-11.542-7.887-23.058-12.024-33.603-12.024c-17.587,0-31.302,11.537-34.94,29.392c-2.979,14.62,1.015,31.029,11.247,46.203    c11.428,16.945,30.063,31.257,53.892,41.39c1.088,0.462,2.246,0.694,3.404,0.694c1.158,0,2.316-0.231,3.404-0.694    c23.831-10.132,42.467-24.445,53.895-41.39C323.533,206.751,327.529,190.342,324.549,175.722z M256.001,245.807    c-47.01-21.289-54.331-52.693-51.495-66.612c2.003-9.829,8.525-15.467,17.891-15.467c5.752,0,15.32,2.126,28.233,12.254    c3.154,2.473,7.586,2.472,10.738,0c12.915-10.128,22.482-12.254,28.236-12.254c9.37,0,15.893,5.637,17.896,15.468    C310.336,193.115,303.014,224.517,256.001,245.807z" fill="#D80027"/>
	</g>
</g>
<g>
	<g>
		<circle cx="329.568" cy="86.649" r="9.023" fill="#D80027"/>
	</g>
</g>
<g>
	<g>
		<circle cx="294.769" cy="86.649" r="9.023" fill="#D80027"/>
	</g>
</g>
<g>
	<g>
		<path d="M421.815,133.813c-9.19-10.606-21.382-18.092-34.832-21.517C377.215,48.788,322.199,0,256,0    c-29.832,0-58.004,9.682-81.472,28c-3.787,2.957-4.461,8.424-1.504,12.211c2.957,3.787,8.424,4.461,12.21,1.504    c20.382-15.908,44.852-24.316,70.768-24.316c59.456,0,108.527,45.305,114.51,103.204c0.096,0.935,0.19,1.96,0.266,2.932    c2.478,31.845,0.349,64.571,0.349,96.505c0,1.553,0,3.106,0,4.66c0,47.729-31.235,92.146-76.157,108.332    c-2.192,0.79-4.409,1.51-6.647,2.16c-18.282,5.307-37.804,6.045-56.431,2.086c-44.726-9.491-80.938-47.273-89.171-92.143    c-1.235-6.736-1.847-13.588-1.847-20.435v-92.175c0-3.393,0.201-6.767,0.455-10.148c1.801-20.724,9.102-40.382,21.414-57.357    c2.821-3.889,1.956-9.328-1.935-12.151c-3.889-2.82-9.331-1.956-12.151,1.935c-12.474,17.2-20.485,36.785-23.646,57.492    c-13.447,3.428-25.637,10.912-34.827,21.516c-10.769,12.428-16.7,28.338-16.7,44.8c0,16.462,5.931,32.372,16.7,44.8    c9.19,10.606,21.382,18.091,34.831,21.517c7.511,48.83,41.775,88.948,87.3,104.889v24.067c-7.466,1.155-14.799,2.947-21.91,5.359    c-8.576,2.913-16.841,6.739-24.628,11.363c-39.606,23.515-64.208,66.698-64.208,112.692c0,4.805,3.894,8.7,8.7,8.7    c0,0,59.95,0,59.955,0c0,0,171.551,0,171.556,0h59.95c4.806,0,8.7-3.895,8.7-8.7c0-45.996-24.603-89.177-64.208-112.692    c-0.044-0.027-0.093-0.044-0.137-0.07c-0.036-0.021-0.067-0.046-0.103-0.066c-7.389-4.367-15.198-8.004-23.211-10.812    c-7.467-2.617-15.202-4.551-23.088-5.774v-24.068c45.527-15.94,79.79-56.058,87.301-104.888    c13.45-3.427,25.642-10.912,34.832-21.517c10.769-12.428,16.7-28.338,16.7-44.8S432.584,146.241,421.815,133.813z     M123.484,226.201c-19.169-7.496-32.599-26.346-32.599-47.588c0-21.242,13.429-40.093,32.599-47.589    c-0.006,0.501-0.009,1.001-0.009,1.501v92.176C123.475,225.2,123.478,225.701,123.484,226.201z M161.52,494.601h-42.212    c2.436-31.26,17.888-60.318,42.212-79.906V494.601z M350.481,414.693c24.324,19.588,39.776,48.646,42.212,79.907h-42.212V414.693z     M317.018,396.08c5.494,1.924,10.878,4.301,16.064,7.087v91.433H178.92v-91.44c5.18-2.783,10.557-5.157,16.023-7.073l1.108-0.385    c8.265-2.804,16.938-4.644,25.778-5.473c4.471-0.419,7.889-4.171,7.889-8.661v-26.959c0.009,0.158,2.792,0.528,3.036,0.572    c1.121,0.201,2.248,0.382,3.373,0.553c6.573,0.995,13.228,1.491,19.876,1.491c6.522,0,12.935-0.482,19.208-1.397    c2.367-0.346,4.73-0.747,7.076-1.219v26.957c0,4.489,3.416,8.242,7.887,8.661C299.377,391.094,308.408,393.063,317.018,396.08z     M388.516,226.202c0.115-10.176,0.009-20.361,0.009-30.537c0-16.173,0-32.345,0-48.519c0-1.336,0.01-16.123-0.009-16.123    c19.169,7.495,32.599,26.346,32.599,47.59S407.686,218.707,388.516,226.202z" fill="#D80027"/>
	</g>
</g>
</svg>
