<svg version="1.1" id="Layer_1" xmlns="http://www.w3.org/2000/svg" xmlns:xlink="http://www.w3.org/1999/xlink" x="0px" y="0px"
	 viewBox="0 0 512 512" style="enable-background:new 0 0 512 512;" xml:space="preserve">
<circle style="fill:#FF6262;" cx="256" cy="256" r="256"/>
<path style="fill:#FF314F;" d="M511.56,270.85l-117.598-117.6l-1.181,50.045L279.362,89.876l-93.467,23.04l-46.833,46.833
	l-35.628,35.626v64.072l37.173,124.054l128.179,128.179C399.305,505.261,504.11,401.094,511.56,270.85z"/>
<g>
	<path style="fill:#273B7A;" d="M279.362,89.878l-35.125-35.125c-6.061-6.058-15.882-6.058-21.944,0
		c-6.06,6.06-6.06,15.884,0,21.944l9.113,9.111C148.197,97.776,84.04,169.532,84.04,256c0,52.24,23.338,101.035,64.033,133.88
		c2.87,2.315,6.313,3.441,9.733,3.441c4.529,0,9.018-1.974,12.085-5.772c5.38-6.666,4.339-16.436-2.331-21.818
		C134.203,338.81,115.071,298.813,115.071,256c0-68.73,49.469-126.092,114.664-138.437l-7.439,7.439
		c-6.06,6.06-6.06,15.884,0,21.944c3.031,3.029,7.001,4.544,10.971,4.544c3.972,0,7.94-1.515,10.971-4.544l35.125-35.125
		C285.42,105.762,285.42,95.935,279.362,89.878z"/>
	<path style="fill:#273B7A;" d="M427.96,256c0-53.312-24.121-102.729-66.181-135.583c-6.749-5.275-16.499-4.075-21.778,2.677
		c-5.275,6.753-4.077,16.501,2.677,21.778c34.476,26.933,54.251,67.437,54.251,111.13c0,75.036-58.952,136.549-132.972,140.691
		l9.694-9.694c6.06-6.06,6.06-15.884,0-21.944c-6.061-6.058-15.882-6.058-21.944,0l-35.125,35.125c-6.06,6.06-6.06,15.884,0,21.944
		l35.125,35.125c3.031,3.029,7.001,4.544,10.971,4.544c3.97,0,7.94-1.515,10.971-4.544c6.06-6.06,6.06-15.884,0-21.944l-7.644-7.644
		C356.185,422.46,427.96,347.458,427.96,256z"/>
</g>
<polygon style="fill:#FFC61B;" points="219.596,328.428 200.835,309.665 246.703,263.796 246.703,169.781 273.239,169.781
	273.239,274.787 "/>
<g>
	<path style="fill:#121149;" d="M167.56,365.732C134.203,338.81,115.071,298.813,115.071,256c0-20.592,4.468-40.148,12.441-57.794
		l-27.505-14.445c-10.221,21.98-15.969,46.445-15.969,72.24c0,52.24,23.338,101.035,64.033,133.88
		c2.87,2.315,6.313,3.441,9.733,3.441c4.529,0,9.018-1.974,12.085-5.772C175.271,380.883,174.228,371.114,167.56,365.732z"/>
	<path style="fill:#121149;" d="M263.958,396.691l9.694-9.694c6.06-6.06,6.06-15.884,0-21.944c-6.061-6.058-15.882-6.058-21.944,0
		l-35.125,35.125c-6.06,6.06-6.06,15.884,0,21.944l35.125,35.125c3.031,3.029,7.001,4.544,10.971,4.544
		c3.97,0,7.94-1.515,10.971-4.544c6.06-6.06,6.06-15.884,0-21.944l-7.644-7.644c58.723-3.387,109.635-36.38,138.012-84.235
		l-27.534-14.46C353.039,367.526,311.641,394.023,263.958,396.691z"/>
</g>
<polygon style="fill:#E09112;" points="246.703,260.805 246.703,263.796 200.835,309.665 219.596,328.428 273.239,274.787
	273.239,274.741 "/>
</svg>
